<svg width="44" height="44" viewBox="0 0 44 44" fill="none" xmlns="http://www.w3.org/2000/svg">
<rect x="0.5" y="0.5" width="43" height="43" rx="9.5" fill="#F6F6F6" stroke="#E5E5E5"/>
<path d="M26.0334 16.4687C25.8516 18.993 23.979 20.9375 21.9371 20.9375C19.8951 20.9375 18.0195 18.9936 17.8407 16.4687C17.6545 13.8427 19.4774 12 21.9371 12C24.3967 12 26.2196 13.8905 26.0334 16.4687Z" stroke="#9CA4B5" stroke-width="1.98611" stroke-linecap="round" stroke-linejoin="round"/>
<path d="M21.9372 24.9097C17.8924 24.9097 14.0027 26.9187 13.0283 30.8314C12.8992 31.349 13.2238 31.8611 13.7557 31.8611H30.1194C30.6513 31.8611 30.974 31.349 30.8468 30.8314C29.8724 26.8561 25.9827 24.9097 21.9372 24.9097Z" stroke="#9CA4B5" stroke-width="1.98611" stroke-miterlimit="10"/>
</svg>
